<?xml version="1.0" encoding="UTF-8"?>
<svg id="Layer_2" data-name="Layer 2" xmlns="http://www.w3.org/2000/svg" viewBox="0 0 74 111.22" width="40px" height="40px">
  <defs>
    <style>
      .cls-1 {
        fill: #fff;
      }

      .cls-2 {
        fill: #cc0000;
      }
    </style>
  </defs>
  <g id="Layer_1-2" data-name="Layer 1" width="30px" height="30px">
    <g>
      <polygon class="cls-2" points="72 2 2 2 2 106.4 36.53 72 72 72 72 2"/>
      <path class="cls-1" d="M0,111.22V0h74v74h-36.64L0,111.22ZM2,2v104.4l34.53-34.4h35.47V2H2Z"/>
      <path class="cls-1" d="M36.28,17.55l-2.05,2.11-14.95,15.33-.78.8c.07,1.27,1.1,19.24,1.16,20.38h1.22s32.01.29,32.01.29h1.46c.48-6.86.9-13.77,1.15-20.94-6.26-5.98-12.74-12.05-19.22-17.95"/>
    </g>
  </g>
</svg>