<?xml version="1.0" encoding="UTF-8"?>
<svg id="Layer_1" data-name="Layer 1" xmlns="http://www.w3.org/2000/svg" viewBox="0 0 70.87 70.87">

  <path class="cls-1" d="M39.58,16.38l-5.24.09c.02.9.02,2.7.04,2.94-.13,0-4.68.07-4.96.08h-.58c0-.27-.03-2.22-.04-3.29-.91.04-4.02.18-5,.22,0,.8.02,2.19.02,2.19v.74c-.42,0-4.43.04-4.96.05,0,0-.79,0-.79,0v-.8s-.02-1.89-.02-1.89l-4.47-.13.08,9.48,4.19,3.03.41.3v.51s0,12.71,0,12.71c.02,3.93-.01,7.85-.06,11.78,5.51.05,11.02.13,16.53.28-.09-6.14-.04-12.28.08-18.42.02-1.07.07-3.73.09-4.77v-.79c.02-.26-.03-.53.47-.79l4.41-3.41-.21-10.11ZM24.51,47.14c.03-2.14.19-4.35.34-6.43.96-.07,2.07-.19,3.16-.22.12,2.11.17,4.22.17,6.33,0,0,0,.38,0,.38-1.22-.02-2.45,0-3.67-.05ZM25.05,34.84h-.56c.04-1.79.28-3.68.56-5.41.15,0,2.73-.16,2.78-.16.23,1.75.34,3.5.34,5.25v.33c-.35,0-2.71-.01-3.13-.02Z"/>
  <path class="cls-1" d="M57.28,52.17c-.42-7.03-.79-14.07-1.13-21.1-.97.02-2.23.05-3.19.07-.05,1.16-.13,2.89-.15,3.38-.61,0-3.08-.02-3.74-.02h-.92s-.06-.92-.06-.92l-.16-2.55h-3.48s-.17,2.29-.17,2.29l-.06.86h-.84c-.6,0-3.2,0-3.75,0l-.06-.8-.16-2.31c-.7.03-1.73.07-2.55.1.04,1.5.06,3.77.09,5.09.11,5.53.16,11.06.1,16.59,6.74-.29,13.48-.5,20.23-.68ZM42.93,42.1c.68-.85,1.41-1.67,2.1-2.5l.18.02,2.49.25h.13c.64.69,1.3,1.34,1.93,2.03.09.1.1.08.1.23.12,2.59.3,5.17.37,7.77v.28s-.25,0-.25,0c-2.09.08-4.97.09-7.07.12,0-2.61-.02-5.4.03-8.2Z"/>
</svg>