<?xml version="1.0" encoding="UTF-8"?>
<svg id="Layer_2" data-name="Layer 2" xmlns="http://www.w3.org/2000/svg" viewBox="0 0 442.68 68.86">
  <g id="Layer_1-2" data-name="Layer 1">
    <g>
      <g>
        <path class="cls-1" d="M432.37,12.38c-3.53,0-6.42.76-8.66,2.29-2.25,1.52-3.93,3.63-5.05,6.32-1.12,2.69-1.69,5.32-1.69,7.89,0,1.94.44,3.62,1.31,5.04.87,1.43,2.54,2.77,5,4.04,2.78,1.43,4.5,2.47,5.16,3.14.66.67.99,1.58.99,2.73,0,1.35-.38,2.53-1.15,3.56-.77,1.03-1.74,1.54-2.91,1.54-1.71,0-2.57-.99-2.57-2.97,0-.83.14-1.82.43-2.97h-9.63c-.5,2.14-.75,3.9-.75,5.28,0,2.81.92,4.87,2.75,6.17,1.84,1.3,4.61,1.96,8.32,1.96,2.67,0,5.04-.39,7.11-1.16,2.07-.77,3.79-1.96,5.16-3.56,1.37-1.6,2.39-3.53,3.05-5.79.66-2.25.99-4.19.99-5.82,0-2.18-.54-4.05-1.63-5.61-1.09-1.56-3.22-3.1-6.39-4.6-1.75-.83-3.01-1.61-3.8-2.35-.78-.73-1.18-1.67-1.18-2.82,0-1.3.37-2.44,1.1-3.41.73-.97,1.67-1.45,2.81-1.45,1.43,0,2.14.95,2.14,2.85,0,.71-.13,1.62-.38,2.73h9.3c.32-1.62.48-3.11.48-4.45,0-2.97-.82-5.15-2.46-6.53-1.64-1.39-4.26-2.08-7.86-2.08M416.22,13.21h-22.62l-7.91,42.38h23.1l1.66-9.02h-13.16l1.6-8.43h11.87l1.6-8.66h-11.87l1.34-7.24h12.67l1.71-9.02ZM377.56,12.38c-4.53,0-8.08,1.3-10.67,3.92-2.59,2.61-4.63,7.15-6.15,13.62-1.51,6.47-2.27,11.8-2.27,16,0,3.64.82,6.3,2.46,7.98,1.64,1.68,4.42,2.52,8.34,2.52,6.2,0,10.64-2.67,13.31-8.01,1.03-2.02,1.93-5.3,2.67-9.85h-9.63c-.75,3.76-1.33,6.18-1.74,7.27-.41,1.09-.86,1.88-1.34,2.37-.48.49-1.1.74-1.84.74-.82,0-1.4-.24-1.74-.71-.34-.48-.51-1.3-.51-2.49,0-1.62.56-5.49,1.69-11.61,1.12-6.11,2.06-10.02,2.81-11.72.75-1.7,1.82-2.55,3.21-2.55s1.98.87,1.98,2.61c0,.99-.14,2.22-.43,3.68l-.43,2.31h9.63c.61-3.36.91-5.64.91-6.82,0-6.17-3.42-9.26-10.27-9.26M346.01,21.87h.11l-.64,17.99h-5.56l6.1-17.99ZM353.92,13.21h-12.51l-17.22,42.38h10.59l2.35-7.42h7.91l-.32,7.42h10.59l-1.39-42.38ZM314.68,31.49l1.92-10.33h1.87c2.07,0,3.1,1.13,3.1,3.38,0,1.9-.45,3.53-1.34,4.9-.89,1.36-2.09,2.05-3.58,2.05h-1.98ZM323.18,13.21h-15.03l-7.91,42.38h9.95l2.99-16.14h3.58c2.96.08,5.62-.58,7.99-1.99,2.37-1.41,4.17-3.51,5.4-6.32,1.23-2.81,1.84-5.7,1.84-8.67s-.79-5.4-2.38-6.94c-1.58-1.54-3.73-2.31-6.44-2.31M291.84,12.38c-3.53,0-6.42.76-8.66,2.29-2.25,1.52-3.93,3.63-5.05,6.32-1.12,2.69-1.69,5.32-1.69,7.89,0,1.94.44,3.62,1.31,5.04.87,1.43,2.54,2.77,5,4.04,2.78,1.43,4.5,2.47,5.16,3.14.66.67.99,1.58.99,2.73,0,1.35-.38,2.53-1.15,3.56-.77,1.03-1.74,1.54-2.91,1.54-1.71,0-2.57-.99-2.57-2.97,0-.83.14-1.82.43-2.97h-9.62c-.5,2.14-.75,3.9-.75,5.28,0,2.81.92,4.87,2.75,6.17,1.84,1.3,4.61,1.96,8.32,1.96,2.67,0,5.04-.39,7.11-1.16,2.07-.77,3.79-1.96,5.16-3.56,1.37-1.6,2.39-3.53,3.05-5.79.66-2.25.99-4.19.99-5.82,0-2.18-.54-4.05-1.63-5.61-1.09-1.56-3.22-3.1-6.39-4.6-1.75-.83-3.01-1.61-3.8-2.35-.78-.73-1.18-1.67-1.18-2.82,0-1.3.37-2.44,1.1-3.41.73-.97,1.67-1.45,2.81-1.45,1.43,0,2.14.95,2.14,2.85,0,.71-.13,1.62-.38,2.73h9.3c.32-1.62.48-3.11.48-4.45,0-2.97-.82-5.15-2.46-6.53-1.64-1.39-4.26-2.08-7.86-2.08"/>
        <path class="cls-1" d="M241.23,47.63l4.97-26.47h1.93c1.1,0,1.93.21,2.48.62.55.42.83,1.36.83,2.82s-.4,4.44-1.2,8.81c-.8,4.37-1.48,7.49-2.03,9.35-.55,1.86-1.17,3.13-1.84,3.83-.68.69-1.76,1.04-3.26,1.04h-1.87ZM252.14,13.21h-14.38l-7.92,42.38h14.49c2.67,0,4.98-.56,6.92-1.69,1.94-1.13,3.56-2.89,4.86-5.28,1.3-2.39,2.56-6.35,3.77-11.87,1.21-5.52,1.82-10,1.82-13.44,0-3.64-.81-6.23-2.43-7.77-1.62-1.54-4-2.32-7.14-2.32M233.64,13.21h-22.62l-7.91,42.38h23.1l1.66-9.02h-13.16l1.6-8.43h11.87l1.6-8.67h-11.87l1.34-7.24h12.67l1.71-9.02ZM208.77,13.21h-24.92l-1.77,9.38h7.49l-6.15,33h9.95l6.15-33h7.49l1.76-9.38ZM169.9,12.38c-3.53,0-6.41.76-8.66,2.29-2.24,1.52-3.93,3.63-5.05,6.32-1.12,2.69-1.69,5.32-1.69,7.89,0,1.94.44,3.62,1.31,5.05.87,1.42,2.54,2.77,5,4.04,2.78,1.43,4.5,2.47,5.16,3.14.66.67.99,1.58.99,2.73,0,1.34-.39,2.53-1.15,3.56-.77,1.03-1.74,1.54-2.91,1.54-1.71,0-2.57-.99-2.57-2.97,0-.83.14-1.82.43-2.97h-9.63c-.5,2.14-.75,3.9-.75,5.28,0,2.81.92,4.87,2.75,6.17,1.83,1.3,4.61,1.96,8.31,1.96,2.67,0,5.05-.39,7.11-1.16,2.07-.77,3.79-1.96,5.16-3.56,1.37-1.6,2.39-3.53,3.05-5.79.66-2.25.99-4.19.99-5.82,0-2.18-.54-4.04-1.63-5.61-1.09-1.56-3.22-3.1-6.39-4.6-1.75-.83-3.01-1.61-3.8-2.34-.78-.73-1.17-1.67-1.17-2.82,0-1.3.37-2.44,1.1-3.41s1.67-1.45,2.81-1.45c1.43,0,2.14.95,2.14,2.85,0,.71-.13,1.62-.38,2.73h9.3c.32-1.62.48-3.11.48-4.45,0-2.97-.82-5.14-2.46-6.53-1.64-1.38-4.26-2.08-7.86-2.08M138.99,21.87h.11l-.64,17.98h-5.56l6.1-17.98ZM146.91,13.21h-12.51l-17.22,42.38h10.59l2.35-7.42h7.92l-.32,7.42h10.59l-1.39-42.38ZM94.35,13.21h-9.63l-1.39,42.38h10.91l8.61-28.49h.11l-1.98,28.49h10.91l14.44-42.38h-9.63l-8.18,29.32h-.11l1.6-29.32h-8.98l-9.09,29.32h-.11l2.51-29.32Z"/>
      </g>
      <g>
        <polygon class="cls-1" points="40.41 23.62 34.36 16.84 16.09 32.19 25.3 48.14 18.91 48.14 18.46 52.03 32.55 53.88 48.5 44.68 48.5 51.07 52.32 51.51 54.24 32.19 54.24 32.19 36.32 27.97 40.41 23.62"/>
        <path class="cls-1" d="M0,0v68.86h68.86V0H0ZM57.93,32.19v25.38h-9.44v5.52l-9.55-5.52H12.4v-9.44h-5.52l5.52-9.55v-7.93l1.08-1.08L31.98,11.09l2.53-2.53,2.61,2.46,8.04,7.56,3.78-4.02,3.17,10.56,4.66,4.38,1.16,1.09v1.6Z"/>
      </g>
    </g>
  </g>
</svg>