<?xml version="1.0" encoding="UTF-8"?>
<svg id="Layer_2" data-name="Layer 2" xmlns="http://www.w3.org/2000/svg" viewBox="0 0 181.67 22.44">
  <g id="Layer_1-2" data-name="Layer 1">
    <g>
      <path class="cls-1" d="M176.41,0c-1.8,0-3.27.39-4.41,1.16-1.14.78-2,1.85-2.57,3.22-.57,1.37-.86,2.71-.86,4.02,0,.99.22,1.84.67,2.57.44.73,1.29,1.41,2.55,2.06,1.42.73,2.29,1.26,2.63,1.6.34.34.5.81.5,1.39,0,.69-.19,1.29-.59,1.81-.39.52-.88.79-1.48.79-.87,0-1.31-.5-1.31-1.51,0-.42.07-.93.22-1.51h-4.9c-.25,1.09-.38,1.98-.38,2.69,0,1.43.47,2.48,1.4,3.15.94.66,2.35,1,4.24,1,1.36,0,2.57-.2,3.62-.59,1.05-.39,1.93-1,2.63-1.81.7-.82,1.22-1.8,1.55-2.95.34-1.15.5-2.14.5-2.96,0-1.11-.28-2.06-.83-2.86-.55-.8-1.64-1.58-3.26-2.34-.89-.42-1.53-.82-1.93-1.19-.4-.37-.6-.85-.6-1.44,0-.66.19-1.24.56-1.74.37-.49.85-.74,1.43-.74.73,0,1.09.48,1.09,1.45,0,.36-.06.83-.19,1.39h4.74c.16-.83.24-1.58.24-2.27,0-1.51-.42-2.62-1.25-3.33-.83-.71-2.17-1.06-4-1.06M168.18.42h-11.52l-4.03,21.59h11.77l.84-4.6h-6.7l.82-4.29h6.05l.82-4.41h-6.05l.68-3.69h6.46l.87-4.6ZM148.49,0c-2.31,0-4.12.66-5.43,2-1.32,1.33-2.36,3.64-3.13,6.94-.77,3.3-1.16,6.01-1.16,8.15,0,1.85.42,3.21,1.25,4.07.84.86,2.25,1.28,4.25,1.28,3.16,0,5.42-1.36,6.78-4.08.53-1.03.98-2.7,1.36-5.02h-4.9c-.38,1.91-.68,3.15-.88,3.7-.21.55-.44.96-.68,1.21-.25.25-.56.38-.94.38-.42,0-.71-.12-.89-.36-.17-.24-.26-.66-.26-1.27,0-.83.29-2.8.86-5.91.57-3.11,1.05-5.1,1.43-5.97.38-.87.93-1.3,1.63-1.3s1.01.44,1.01,1.33c0,.5-.07,1.13-.22,1.88l-.22,1.18h4.9c.31-1.71.46-2.87.46-3.48,0-3.15-1.74-4.72-5.23-4.72M132.41,4.84h.05l-.33,9.16h-2.83l3.11-9.16ZM136.45.42h-6.37l-8.77,21.59h5.39l1.2-3.78h4.03l-.16,3.78h5.39l-.71-21.59ZM116.45,9.74l.98-5.26h.95c1.05,0,1.58.57,1.58,1.72,0,.97-.23,1.8-.68,2.5-.45.69-1.06,1.04-1.83,1.04h-1.01ZM120.78.42h-7.66l-4.03,21.59h5.07l1.52-8.22h1.83c1.51.04,2.86-.3,4.07-1.01,1.21-.72,2.12-1.79,2.75-3.22.63-1.43.94-2.9.94-4.42s-.4-2.75-1.21-3.54c-.81-.79-1.9-1.18-3.28-1.18M104.82,0c-1.8,0-3.27.39-4.41,1.16-1.14.78-2,1.85-2.57,3.22-.57,1.37-.86,2.71-.86,4.02,0,.99.22,1.84.67,2.57.44.73,1.29,1.41,2.55,2.06,1.42.73,2.29,1.26,2.63,1.6.34.34.5.81.5,1.39,0,.69-.19,1.29-.59,1.81-.39.52-.88.79-1.48.79-.87,0-1.31-.5-1.31-1.51,0-.42.07-.93.22-1.51h-4.9c-.25,1.09-.38,1.98-.38,2.69,0,1.43.47,2.48,1.4,3.15.94.66,2.35,1,4.24,1,1.36,0,2.57-.2,3.62-.59,1.05-.39,1.93-1,2.63-1.81.7-.82,1.22-1.8,1.55-2.95.34-1.15.5-2.14.5-2.96,0-1.11-.28-2.06-.83-2.86-.55-.8-1.64-1.58-3.26-2.34-.89-.42-1.53-.82-1.93-1.19-.4-.37-.6-.85-.6-1.44,0-.66.19-1.24.56-1.74.37-.49.85-.74,1.43-.74.73,0,1.09.48,1.09,1.45,0,.36-.06.83-.19,1.39h4.74c.16-.83.24-1.58.24-2.27,0-1.51-.42-2.62-1.25-3.33-.83-.71-2.17-1.06-4-1.06"/>
      <path class="cls-1" d="M80.44,17.96l2.53-13.49h.98c.56,0,.98.11,1.27.32.28.21.42.69.42,1.44s-.2,2.26-.61,4.49c-.41,2.23-.75,3.82-1.04,4.76-.28.95-.59,1.6-.94,1.95-.34.35-.9.53-1.66.53h-.95ZM86,.42h-7.33l-4.03,21.59h7.38c1.36,0,2.54-.29,3.53-.86.99-.57,1.82-1.47,2.48-2.69.66-1.22,1.3-3.24,1.92-6.05.62-2.81.93-5.09.93-6.85,0-1.85-.41-3.17-1.24-3.96-.83-.79-2.04-1.18-3.64-1.18M76.57.42h-11.52l-4.03,21.59h11.77l.84-4.6h-6.7l.82-4.29h6.05l.82-4.42h-6.05l.68-3.69h6.46l.87-4.6ZM63.91.42h-12.69l-.9,4.78h3.81l-3.13,16.81h5.07l3.13-16.81h3.81l.9-4.78ZM44.1,0C42.31,0,40.83.39,39.69,1.16c-1.14.78-2,1.85-2.57,3.22-.57,1.37-.86,2.71-.86,4.02,0,.99.22,1.84.67,2.57.44.72,1.29,1.41,2.55,2.06,1.42.73,2.29,1.26,2.63,1.6.34.34.5.81.5,1.39,0,.68-.2,1.29-.59,1.81-.39.52-.89.79-1.48.79-.87,0-1.31-.5-1.31-1.51,0-.42.07-.93.22-1.51h-4.9c-.25,1.09-.38,1.99-.38,2.69,0,1.43.47,2.48,1.4,3.15.93.66,2.35,1,4.24,1,1.36,0,2.57-.2,3.62-.59,1.05-.39,1.93-1,2.63-1.81.7-.82,1.22-1.8,1.55-2.95.33-1.15.5-2.14.5-2.96,0-1.11-.28-2.06-.83-2.86-.55-.8-1.64-1.58-3.26-2.34-.89-.42-1.53-.82-1.93-1.19-.4-.37-.6-.85-.6-1.44,0-.66.19-1.24.56-1.74s.85-.74,1.43-.74c.73,0,1.09.48,1.09,1.45,0,.36-.06.83-.19,1.39h4.74c.16-.83.25-1.58.25-2.27,0-1.51-.42-2.62-1.25-3.33C47.27.35,45.94,0,44.1,0M28.36,4.84h.05l-.33,9.16h-2.83l3.11-9.16ZM32.39.42h-6.37l-8.77,21.59h5.39l1.2-3.78h4.03l-.16,3.78h5.39l-.71-21.59ZM5.61.42H.71l-.71,21.59h5.56l4.39-14.52h.05l-1.01,14.52h5.56L21.9.42h-4.9l-4.17,14.94h-.05L13.59.42h-4.58l-4.63,14.94h-.05L5.61.42Z"/>
    </g>
  </g>
</svg>