<?xml version="1.0" encoding="UTF-8"?>
<svg id="Layer_2" data-name="Layer 2" xmlns="http://www.w3.org/2000/svg" viewBox="0 0 39.89 31.5">
  <defs>
    <style>
      .cls-1 {
        fill: #fff;
      }
    </style>
  </defs>
  <g id="Layer_1-2" data-name="Layer 1">
    <path class="cls-1" d="M32.64,24.08c-.01-4.41-.12-8.78-.28-13.27,2.3.24,4.46.33,6.71.28-.36-.78-3.9-9.06-4.38-10.09l-.44-1.01h-1.26S6.69.24,6.69.24h-1.07C4.59,2.33,1,9.52,0,11.53c1.18-.08,5.11-.35,7.16-.49l-.11,13.11c-1.95-.16-5.69-.47-6.47-.52.06,1.11.26,5.43.33,6.64l.06,1.24,1.16-.02,35.43-.62h.46s.14-.6.14-.6c.35-1.47,1.4-5.76,1.73-7.18-1.28.18-5.12.71-7.25,1Z"/>
  </g>
</svg>