<?xml version="1.0" encoding="UTF-8"?>
<svg id="Layer_1" data-name="Layer 1" xmlns="http://www.w3.org/2000/svg" viewBox="0 0 70.87 70.87">

  <path class="cls-1" d="M49.65,45.36v-.88h-1.36l.68-1.35-1.02-.52-1.11.17v-1.66l-1.36-.56-.68,1.19-.6-1.87h-1.62v4.17l-1.4-.94-.64.43.96,2.14-17.57.69,2.94-.15-.33-12.2c.75-.15,4.13-.82,4.19-.82.06,0-.43-4.38-.43-4.38h-1.02l-.32,3.23-2.48-.09-.27-9.84-1.89.32-.23,13.91h-3.99l-.77-5.11h-1.02v6.77l5.74.52-.13,7.85-10.21.4v1.96l43.4-.26v-3.42l-7.49.3Z"/>
</svg>