<?xml version="1.0" encoding="UTF-8"?>
<svg id="Layer_1" data-name="Layer 1" xmlns="http://www.w3.org/2000/svg" viewBox="0 0 70.87 70.87">

  <path class="cls-1" d="M25.67,42.98l1.05-.03,21.01-.55v-1.53l-19.88-.52-.38-2.31,20.13.88,4.8-14.26-27.04.62-.61-3.7-.25-1.53c-1.08.01-4.84.05-5.99.07v3.63l2.91.03,4.03,18.11.24,1.1Z"/>
  <path class="cls-1" d="M23.82,47.49c.23,4.43,6.51,4.45,6.69,0-.02-4.71-6.62-4.67-6.69,0Z"/>
  <path class="cls-1" d="M44.35,44.67c-3.23,3.25,1.34,7.77,4.6,4.6,2.89-3.2-1.41-7.54-4.6-4.6Z"/>
</svg>