<?xml version="1.0" encoding="UTF-8"?>
<svg id="Layer_2" data-name="Layer 2" xmlns="http://www.w3.org/2000/svg" viewBox="0 0 68.86 68.86">
  <defs>
    <style>
      .cls-1 {
        fill: #fff;
      }

      .cls-2 {
        fill: #cd2028;
      }
    </style>
  </defs>
  <g id="Layer_1-2" data-name="Layer 1">
    <rect class="cls-2" width="68.86" height="68.86"/>
    <path class="cls-1" d="M58.71,28.11l-5.04-4.75-3.44-11.44-4.09,4.35-8.7-8.19-2.83-2.66-2.74,2.74L11.83,28.19l-1.17,1.17v8.58l-5.97,10.34h5.97v10.22h28.75l10.34,5.97v-5.97h10.22v-29.22l-1.26-1.18ZM17.23,52.51l.48-4.22h6.93l-9.97-17.27,19.79-16.62,6.55,7.33-4.44,4.71,19.41,4.58h0s-2.08,20.91-2.08,20.91l-4.14-.47v-6.93l-17.27,9.97-15.25-2Z"/>
  </g>
</svg>