<?xml version="1.0" encoding="UTF-8"?>
<svg id="Layer_2" data-name="Layer 2" xmlns="http://www.w3.org/2000/svg" viewBox="0 0 43.25 41.72">
  <defs>
    <style>
      .cls-1 {
        fill: #fff;
      }
    </style>
  </defs>
  <g id="Layer_1-2" data-name="Layer 1">
    <path class="cls-1" d="M41.46,10.18c-1.62.93-6.04,3.48-9.16,5.27.08-1.74.17-3.57.25-5.03-1.59.86-5.79,3.12-9.02,4.86l.15-1.03.74-5.13-4.62,2.76-6.13,3.66-1.56-13.31s-.11-.91-.11-.91c-.72-.11-4.96-.89-5.8-1.01l-1.85-.32-.15,2.19-1.11,16.6L.49,37.67l-.49,3.52c5.42.07,37.86.46,43.25.53-.32-5.59-1.47-25.96-1.78-31.53Z"/>
  </g>
</svg>